<?xml version="1.0" encoding="utf-8"?>
<!-- Generator: Adobe Illustrator 19.2.0, SVG Export Plug-In . SVG Version: 6.00 Build 0)  -->
<svg version="1.1" id="Capa_1" xmlns="http://www.w3.org/2000/svg" xmlns:xlink="http://www.w3.org/1999/xlink" x="0px" y="0px"
	 viewBox="0 0 512 512" style="enable-background:new 0 0 512 512;" xml:space="preserve">
<style type="text/css">
	.st0{fill:#FFFFFF;}
</style>
<g>
	<g>
		<path class="st0" d="M10.7,501.3c7,7,16.2,10.7,25.7,10.7c4,0,8-0.7,12-2l102.3-35.1c34.2,16.9,72.3,25.8,110.6,25.9
			c0.1,0,0.3,0,0.4,0c65.9,0,128.1-25.5,175.3-71.9c47.3-46.5,74-108.4,75-174.4c0.5-34.6-5.8-68.1-18.9-99.8
			c-12.6-30.5-30.9-57.9-54.4-81.3c-23.5-23.5-50.8-41.8-81.3-54.4C325.7,5.8,292.1-0.5,257.6,0c-66,1-127.9,27.7-174.4,75
			c-46.5,47.3-72,109.7-71.9,175.7c0.1,38.3,9,76.4,25.9,110.6L2,463.7C-2.6,476.9,0.8,491.4,10.7,501.3z M30.7,473.5L68,365.1
			c1.4-4,1-8.3-0.9-12c-16.6-31.3-25.4-66.7-25.4-102.4C41.4,131.1,138.5,32.3,258.1,30.4c60.2-1,116.7,21.9,159.2,64.4
			c42.5,42.5,65.4,99,64.4,159.2c-1.9,119.5-100.8,216.6-220.3,216.4c-35.6-0.1-71-8.8-102.4-25.4c-2.2-1.2-4.6-1.8-7.1-1.8
			c-1.7,0-3.3,0.3-4.9,0.8L38.5,481.3c-3.1,1.1-5.3-0.5-6.3-1.5C31.2,478.8,29.6,476.7,30.7,473.5z"/>
	</g>
</g>
<g>
	<g>
		<path class="st0" d="M247.9,362.7c-7.9,0-15.5,7-15.2,15.2c0.4,8.2,6.7,15.2,15.2,15.2c7.9,0,15.5-7,15.2-15.2
			C262.7,369.7,256.4,362.7,247.9,362.7z"/>
	</g>
</g>
<g>
	<g>
		<path class="st0" d="M247.9,127.7c-41.6,0-75.5,33.9-75.5,75.5c0,8.4,6.8,15.2,15.2,15.2s15.2-6.8,15.2-15.2
			c0-24.9,20.3-45.2,45.2-45.2s45.2,20.3,45.2,45.2s-20.3,45.2-45.2,45.2c-8.4,0-15.2,6.8-15.2,15.2v61.9c0,8.4,6.8,15.2,15.2,15.2
			s15.2-6.8,15.2-15.2v-48.3c34.4-7,60.3-37.5,60.3-74C323.4,161.6,289.5,127.7,247.9,127.7z"/>
	</g>
</g>
</svg>
